<?xml version="1.0" standalone="no"?>
<!DOCTYPE svg PUBLIC "-//W3C//DTD SVG 20010904//EN"
 "http://www.w3.org/TR/2001/REC-SVG-20010904/DTD/svg10.dtd">
<svg version="1.0" xmlns="http://www.w3.org/2000/svg"
 width="1280.000000pt" height="1280.000000pt" viewBox="0 0 1280.000000 1280.000000"
 preserveAspectRatio="xMidYMid meet">
<metadata>
Created by potrace 1.15, written by Peter Selinger 2001-2017
https://svgsilh.com/image/1745699.html
https://creativecommons.org/publicdomain/zero/1.0
</metadata>
<g transform="translate(0.000000,1280.000000) scale(0.100000,-0.100000)"
fill="#474747" stroke="none">
<path d="M6327 11528 c-810 -978 -1626 -2136 -2199 -3118 -727 -1246 -1162
-2345 -1273 -3221 -65 -519 -30 -906 132 -1429 123 -399 306 -782 548 -1145
160 -240 301 -412 509 -621 311 -311 572 -504 926 -683 381 -194 749 -301
1200 -352 139 -16 536 -16 680 0 842 92 1553 444 2160 1068 559 574 966 1348
1130 2147 69 335 69 750 0 1175 -232 1428 -1308 3444 -3004 5626 -240 310
-614 765 -627 765 -3 0 -86 -96 -182 -212z"/>
</g>
</svg>
