<?xml version="1.0" standalone="no"?>
<!DOCTYPE svg PUBLIC "-//W3C//DTD SVG 20010904//EN"
 "http://www.w3.org/TR/2001/REC-SVG-20010904/DTD/svg10.dtd">
<svg version="1.0" xmlns="http://www.w3.org/2000/svg" viewBox="0 0 128 128">
<metadata>
Created by potrace 1.15, written by Peter Selinger 2001-2017
https://svgsilh.com/image/2026954.html
https://creativecommons.org/publicdomain/zero/1.0/
</metadata>
<g transform="translate(0,128) scale(1,-1)" fill="#474747">
<path d="M61.4 111.9 c-11.9 -0.8 -22.5 -5.4 -30.9 -13.6 -7.6 -7.5 -12.5
-17 -14 -27.4 -0.4 -2.6 -0.5 -3.8 -0.5 -7 0 -4.4 0.4 -7.6 1.4 -11.7 0.9
-3.5 1.8 -6 3.5 -9.5 1.9 -3.8 3.6 -6.5 6.4 -9.8 1.2 -1.4 4.6 -4.8 6.2
-6.1 7.1 -5.8 15.4 -9.4 24.4 -10.6 3.1 -0.4 6.9 -0.5 8 -0.2 1.8 0.5 3.3 1.4
4.3 2.8 1.3 1.6 1.9 3.5 1.8 5.6 -0.1 2 -0.7 3.3 -2.2 5.1 -0.7 0.8 -1.4 2.2
-1.6 3.2 -0.3 1 -0.3 2.9 0 3.8 0.6 2.4 2.3 4.4 4.5 5.4 1.5 0.7 1.4 0.7 8.9 0.8
3.7 0 6.9 0.1 7 0.1 0.1 0 0.7 0.1 1.3 0.2 5.4 0.9 10.5 3.5 14.5 7.5 3.2 3.3 5.4
6.9 6.7 11.3 1.1 3.6 1.3 8.1 0.7 12.7 -1.9 13.4 -10.7 25.1 -23.8 31.8 -5.8
3 -12 4.7 -18.7 5.4 -1.5 0.2 -6.5 0.3 -7.9 0.2z m-8.4 -10.9 c2.7 -0.9 4.7
-3 5.5 -5.7 0.3 -1.1 0.3 -2.9 0 -4 -0.7 -2.8 -3 -5 -5.8 -5.8 -1.1 -0.3
-2.8 -0.3 -3.9 0 -2.8 0.7 -4.8 2.7 -5.7 5.5 -0.3 0.9 -0.4 2.7 -0.2 3.7 0.5 3.1 3
5.7 6.1 6.4 0.9 0.2 3.1 0.1 4 -0.2z m26 0.2 c3.2 -0.7 5.7 -3.3 6.2 -6.4 0.2
-1 0.1 -2.8 -0.2 -3.7 -0.9 -2.8 -2.9 -4.7 -5.7 -5.5 -1.1 -0.3 -2.8 -0.3 -3.9 0
-2.8 0.7 -5 2.3 -5.8 5.8 -0.3 1.1 -0.3 2.9 0 4 0.8 3 3.2 5.3 6.2 5.9 0.7
0.1 2.4 0.1 3.2 0z m-43.1 -21.3 c1.8 -0.3 3.1 -1 4.5 -2.3 1.3 -1.3 2 -2.7
2.3 -4.6 0.3 -2.5 -0.6 -5 -2.5 -6.7 -1 -0.9 -2 -1.5 -3.4 -1.9 -1 -0.3
-3 -0.3 -4 0 -3.6 1 -6 4.1 -6 7.8 0 1.7 0.4 3.1 1.3 4.4 1.8 2.6 4.9
4 7.9 3.5z m59.6 -0.2 c3.5 -1 5.8 -4.1 5.8 -7.7 0 -1.7 -0.4 -3 -1.3 -4.3
-2.5 -3.9 -7.7 -4.8 -11.5 -2.1 -1.2 0.9 -2.4 2.5 -2.9 4 -0.9 2.7 -0.2 5.8
1.8 7.9 1.2 1.3 2.7 2.1 4.4 2.5 1 0.2 2.7 0.1 3.6 -0.2z"/>
</g>
</svg>
