<svg viewBox="-50 -130 740 740" xmlns="http://www.w3.org/2000/svg" xmlns:svg="http://www.w3.org/2000/svg">
  <path fill="#474747" d="m4,239.99861l0,0c0,-130.70635 141.47749,-236.66527 315.99786,-236.66527l0,0c83.80939,0 164.18481,24.93385 223.44586,69.31971c59.2608,44.38261 92.55627,104.57763 92.55627,167.34556l0,0c0,130.70897 -141.47833,236.66808 -316.00214,236.66808l0,0c-174.52037,0 -315.99786,-105.95911 -315.99786,-236.66808zm158.00044,0l0,0c0,65.35454 70.73923,118.33434 157.99742,118.33434c87.26294,0 158.00085,-52.9798 158.00085,-118.33434c0,-65.35178 -70.73792,-118.33152 -158.00085,-118.33152l0,0c-87.25819,0 -157.99742,52.97974 -157.99742,118.33152z"/>
</svg>
