<?xml version="1.0" encoding="UTF-8" standalone="no"?>
<svg xmlns="http://www.w3.org/2000/svg" height="920.729" width="920.729">
<metadata>
Combination of https://www.svgrepo.com/svg/150374/pencil
https://creativecommons.org/publicdomain/zero/1.0/deed.en
and https://www.svgrepo.com/svg/29291/pencil
https://creativecommons.org/publicdomain/zero/1.0/deed.en
Optimized with svgo
</metadata>
<g fill="#555">
  <path d="M440.186 181.818L105.352 648.939l5.721 8.528 33.597 49.602 41.293 13.82a50.861 50.861 0 0124.356 17.459l26.35 34.666 57.764 15.887 9.915 2.679 334.834-467.121zM748.693 132.147L587.243 16.42c-5.212-3.736-11.417-4.963-17.26-3.999-5.843.964-11.324 4.119-15.06 9.33l-98.575 137.52L655.45 301.987l98.575-137.52c7.471-10.423 5.092-24.848-5.331-32.32zM85.656 701.799l-1.38 16.076-12.96 154.533c-1.304 15.408 12.444 27.113 26.686 24.764 1.826-.301 3.698-.891 5.54-1.664l142.184-61.904 14.781-6.471 14.782-6.471 11.63-5.107-30.349-8.311-28.966-7.882c-4.91-1.347-9.241-4.29-12.338-8.281l-22.267-29.244-5.13-6.657a22.981 22.981 0 00-11.062-7.928l-7.951-2.721-34.847-11.695c-4.865-1.637-8.952-4.807-11.805-9.026l-16.768-24.9-17.617-26.072-1.101 12.656z"/>
  <path d="M833.815 836.441a28.252 28.252 0 00-4.099.32l-245.553 32.915c-12.592 1.659-21.454-12.102-14.704-22.933 3.674-5.717 7.248-11.533 10.82-17.35 9.43-15.442-3.362-35.884-20.963-35.804-1.2.005-2.398.112-3.698.317L233.84 843.768l-38.473 5.975L90.44 866.021c-11.892 1.854-19.846 11.99-18.791 24.086.424 5.397 2.648 10.488 6.165 14.272 4.12 4.481 9.831 6.956 16.031 6.927 1.2-.005 2.4-.112 3.699-.316l383.534-59.444c13.092-2.06 22.159 12.7 14.507 23.534-2.485 3.411-4.969 6.923-7.453 10.334-6.857 9.431-5.186 25.125 2.85 33.187 4.12 4.182 9.33 6.358 14.83 6.333.6-.003 1.3-.006 1.898-.11h.101l.1-.001 331.105-43.705h.101l.1-.002c5.696-.925 10.68-4.248 13.958-9.364 3.575-5.616 4.843-12.522 3.215-18.714-2.646-10.089-11.476-16.649-22.576-16.598z"/>
</g>
</svg>
