<?xml version="1.0" encoding="UTF-8" standalone="no"?>
<svg xmlns="http://www.w3.org/2000/svg" height="16" width="16">
<metadata>
Combination of https://github.com/PapirusDevelopmentTeam/papirus-icon-theme/blob/master/Papirus/symbolic/actions/object-move-symbolic.svg
https://www.gnu.org/licenses/gpl-3.0.html
and https://gitlab.gnome.org/World/design/icon-library/-/blob/master/data/resources/icon-dev-kit/rotate-symbolic.svg
https://www.gnu.org/licenses/gpl-3.0.html
optimized with SVGO
</metadata>
<path d="M8 15.5L5 12h2v-2h2v2h2zM.5 8L4 5v2h2v2H4v2z" fill="#474747"/>
<a transform="scale(.99497) rotate(-4.342 5.603 3.916)">
  <path fill="#474747" d="M8.672.954l-3.654 3.2c.634.717 1.341 1.557 1.92 2.193l1.28 1.46.166-2.484.022-.02c.769-.196 1.74.097 2.457.915 1.102 1.259.67 2.758-.634 3.9l.57.674c.346.407 1.058.4 1.396-.012 1.65-1.444 1.556-4.028.037-5.763-.986-1.124-2.398-1.707-3.725-1.579z"/>
</a>
</svg>
