<?xml version="1.0" encoding="UTF-8" standalone="no"?>
<svg xmlns="http://www.w3.org/2000/svg" viewBox="0 0 920.729 920.729">
<metadata>
Combination of https://www.svgrepo.com/svg/150374/pencil
https://creativecommons.org/publicdomain/zero/1.0/deed.en
and https://www.svgrepo.com/svg/29291/pencil
https://creativecommons.org/publicdomain/zero/1.0/deed.en
</metadata>
  <g fill="#474747">
    <path d="m 823.25922,841.48926 c -1.399,0 -2.699,0.1 -4.1,0.3 l -245.7,31.8 c -12.6,1.601 -21.399,-12.2 -14.6,-23 3.7,-5.7 7.3,-11.5 10.899,-17.3 9.5,-15.4 -3.199,-35.9 -20.8,-35.9 -1.2,0 -2.399,0.101 -3.7,0.301 l -322,48.399 -38.5,5.8 -104.999997,15.801 c -11.9,1.8 -19.9,11.899 -18.9,24 0.4,5.399 2.6,10.5 6.1,14.3 4.1,4.5 9.8,7 16,7 1.2,0 2.4,-0.101 3.7,-0.3 l 383.799997,-57.7 c 13.101,-2 22.101,12.8 14.4,23.6 -2.5,3.4 -5,6.9 -7.5,10.3 -6.9,9.4 -5.3,25.101 2.7,33.2 4.1,4.2 9.3,6.4 14.8,6.4 0.6,0 1.3,0 1.899,-0.101 h 0.101 0.1 l 331.3,-42.199 h 0.101 0.1 c 5.7,-0.9 10.7,-4.2 14,-9.301 3.601,-5.6 4.9,-12.5 3.3,-18.699 -2.6,-10.101 -11.4,-16.701 -22.5,-16.701 z"/>
    <g transform="translate(58.371053,4.3729293)">
      <path d="m 515.582,157.916 -439.199,439.2 4.6,10.1 27.1,58.8 41.6,22 c 9.8,5.2 17.7,13.101 22.9,22.9 l 22,41.6 58.8,27.101 10.101,4.6 439.2,-439.2 z"/>
      <path d="m 853.282,159.216 -151.8,-151.8 c -4.9,-4.9 -11.3,-7.3 -17.7,-7.3 -6.4,0 -12.8,2.4 -17.7,7.3 l -129.3,129.3 187.2,187.2 129.3,-129.3 c 9.8,-9.8 9.8,-25.6 0,-35.4 z"/>
      <path d="m 46.083,650.016 -4.3,16.9 -41,162.5 c -4.1,16.2 8.5,31.1 24.1,31.1 2,0 4.1,-0.3 6.2,-0.8 l 162.5,-41 16.9,-4.3 16.9,-4.3 13.3,-3.4 -30.9,-14.2 -29.5,-13.5 c -5,-2.3 -9.1,-6.199 -11.7,-11 l -18.6,-35.1 -4.3,-8 c -2.3,-4.4 -6,-8.1 -10.4,-10.4 l -8,-4.3 -35.1,-18.6 c -4.9,-2.601 -8.7,-6.7 -11,-11.7 l -13.5,-29.5 -14.2,-30.9 -3.4,13.301 z"/>
    </g>
  </g>
</svg>
